<svg width="112" height="110" viewBox="0 0 112 110" fill="none" xmlns="http://www.w3.org/2000/svg">
<path d="M36.3632 94.7837L22.1129 14.3927L50.8362 14.3927L36.3632 94.7837Z" fill="#6D9889"/>
<path d="M75.4047 94.7837L61.1544 14.3927L89.8777 14.3927L75.4047 94.7837Z" fill="#6D9889"/>
<path d="M56.1455 0.156738L75.3765 109.019H36.614L56.1455 0.156738Z" fill="#92D93F"/>
<path fill-rule="evenodd" clip-rule="evenodd" d="M1.9287 25.2451C4.88891 28.5266 9.63146 29.1787 13.8861 29.2548C24.5349 29.4464 27.4178 26.0678 32.8582 28.8838C36.0438 30.5281 37.8809 33.5914 39.1062 37.3687C39.1137 37.2732 40.122 40.5515 41.6899 43.967L42.9494 46.9484C44.8037 50.6754 45.3361 49.8896 43.4569 52.8614C41.5777 55.8333 39.8504 55.7458 38.3712 55.3952L34.8683 54.0798C34.8683 54.0798 29.2612 57.2918 25.8917 55.8918C23.8464 55.0384 23.8895 52.8765 25.273 50.6299C19.6948 52.4869 15.8419 50.7247 14.442 48.6706C12.073 45.1953 15.042 41.9978 15.042 41.9978C15.042 41.9978 8.60385 42.5553 5.37995 39.6273C2.10466 36.7057 1.04392 29.8366 1.9287 25.2451Z" fill="#E5E9D1"/>
<path fill-rule="evenodd" clip-rule="evenodd" d="M111.324 25.2451C108.295 28.5266 103.442 29.1787 99.0889 29.2548C88.1924 29.4464 85.2425 26.0678 79.6755 28.8838C76.4159 30.5281 74.5361 33.5914 73.2822 37.3687C73.2746 37.2732 72.2429 40.5515 70.6384 43.967L69.3497 46.9484C67.4522 50.6754 66.9075 49.8896 68.8304 52.8614C70.7532 55.8333 72.5208 55.7458 74.0344 55.3952L77.6187 54.0798C77.6187 54.0798 83.3562 57.2918 86.804 55.8918C88.897 55.0384 88.8529 52.8765 87.4371 50.6299C93.1451 52.4869 97.0876 50.7247 98.52 48.6706C100.944 45.1953 97.9061 41.9978 97.9061 41.9978C97.9061 41.9978 104.494 42.5553 107.793 39.6273C111.144 36.7057 112.23 29.8366 111.324 25.2451Z" fill="#E5E9D1"/>
<circle cx="55.9933" cy="59.6978" r="11.5" fill="#E5E9D1"/>
</svg>
